<svg width="26" height="26" viewBox="0 0 26 26" fill="none" xmlns="http://www.w3.org/2000/svg">
<path d="M20.4636 6.82899C20.4296 6.68705 20.3882 6.54675 20.3398 6.40864C20.3196 6.36281 20.296 6.31868 20.2692 6.27663C20.2421 6.23416 20.2118 6.19381 20.1785 6.15594C20.1579 6.13257 20.1361 6.11014 20.1133 6.08875L20.0805 6.058L20.0563 6.03527L20.0309 6.01149L20.0106 5.98938L19.9654 5.94015L19.9545 5.92824C19.9504 5.92374 19.9462 5.91927 19.942 5.91485C19.912 5.88337 19.88 5.854 19.8463 5.8269M20.4636 6.82899L19.8463 5.8269M20.4636 6.82899C20.4527 6.81588 20.4419 6.80278 20.4309 6.78972C20.4309 6.78972 20.4309 6.78971 20.4309 6.78971C20.3181 6.65495 20.2016 6.52318 20.0814 6.39455C20.0355 6.34538 19.989 6.29668 19.942 6.24844L20.4636 6.82899ZM19.8463 5.8269C19.8115 5.79895 19.7748 5.77342 19.7365 5.75049C19.6869 5.72073 19.6345 5.69534 19.58 5.67472C19.4516 5.62815 19.3212 5.5878 19.1893 5.55376L19.8463 5.8269ZM19.7835 6.08953C19.8048 6.11041 19.8261 6.13139 19.8472 6.15248C19.8472 6.15254 19.8473 6.15259 19.8474 6.15265C19.8685 6.17377 19.8896 6.19498 19.9105 6.21628L19.1973 5.56041M19.7835 6.08953L19.942 6.058L19.7835 6.08953ZM19.7835 6.08953C19.7728 6.07899 19.762 6.06848 19.7512 6.058C19.7025 6.01076 19.6534 5.96406 19.6038 5.9179C19.4715 5.79485 19.336 5.67564 19.1973 5.56041M19.1973 5.56041L19.1861 5.55295L19.1973 5.5604C19.1973 5.5604 19.1973 5.56041 19.1973 5.56041Z" stroke="#262626" stroke-width="6"/>
</svg>
